<mxfile host="app.diagrams.net" modified="2020-10-20T10:43:31.532Z" agent="5.0 (X11; Linux x86_64) AppleWebKit/537.36 (KHTML, like Gecko) Chrome/86.0.4240.75 Safari/537.36" etag="qQhBkHLlJIeGwdgg4heo" version="13.8.0" type="github">
  <diagram id="7e0GtD7TXZg0hHKQMnAh" name="Page-1">
    <mxGraphModel dx="756" dy="820" grid="1" gridSize="10" guides="1" tooltips="1" connect="1" arrows="1" fold="1" page="1" pageScale="1" pageWidth="850" pageHeight="1100" math="0" shadow="0">
      <root>
        <mxCell id="0" />
        <mxCell id="1" parent="0" />
        <mxCell id="PHka3gXeUMbXcuHf-Wi0-8" value="新建" style="edgeStyle=orthogonalEdgeStyle;rounded=0;orthogonalLoop=1;jettySize=auto;html=1;" parent="1" source="PHka3gXeUMbXcuHf-Wi0-1" target="PHka3gXeUMbXcuHf-Wi0-4" edge="1">
          <mxGeometry relative="1" as="geometry" />
        </mxCell>
        <mxCell id="PHka3gXeUMbXcuHf-Wi0-1" value="" style="strokeWidth=2;html=1;shape=mxgraph.flowchart.start_2;whiteSpace=wrap;fillColor=#000000;" parent="1" vertex="1">
          <mxGeometry x="130" y="250" width="20" height="20" as="geometry" />
        </mxCell>
        <mxCell id="PHka3gXeUMbXcuHf-Wi0-2" value="" style="shape=mxgraph.bpmn.shape;html=1;verticalLabelPosition=bottom;labelBackgroundColor=#ffffff;verticalAlign=top;align=center;perimeter=ellipsePerimeter;outlineConnect=0;outline=end;symbol=terminate;fillColor=#FFFFFF;" parent="1" vertex="1">
          <mxGeometry x="130" y="370" width="20" height="20" as="geometry" />
        </mxCell>
        <mxCell id="PHka3gXeUMbXcuHf-Wi0-9" value="上架" style="edgeStyle=orthogonalEdgeStyle;rounded=0;orthogonalLoop=1;jettySize=auto;html=1;" parent="1" source="PHka3gXeUMbXcuHf-Wi0-4" target="PHka3gXeUMbXcuHf-Wi0-5" edge="1">
          <mxGeometry relative="1" as="geometry">
            <Array as="points">
              <mxPoint x="360" y="250" />
              <mxPoint x="360" y="250" />
            </Array>
          </mxGeometry>
        </mxCell>
        <mxCell id="PHka3gXeUMbXcuHf-Wi0-15" value="删除" style="edgeStyle=none;rounded=0;orthogonalLoop=1;jettySize=auto;html=1;" parent="1" source="PHka3gXeUMbXcuHf-Wi0-4" target="PHka3gXeUMbXcuHf-Wi0-7" edge="1">
          <mxGeometry relative="1" as="geometry" />
        </mxCell>
        <mxCell id="PHka3gXeUMbXcuHf-Wi0-4" value="未上架" style="rounded=1;whiteSpace=wrap;html=1;fillColor=#FFFFFF;" parent="1" vertex="1">
          <mxGeometry x="240" y="240" width="80" height="40" as="geometry" />
        </mxCell>
        <mxCell id="PHka3gXeUMbXcuHf-Wi0-10" value="下架" style="edgeStyle=orthogonalEdgeStyle;rounded=0;orthogonalLoop=1;jettySize=auto;html=1;" parent="1" source="PHka3gXeUMbXcuHf-Wi0-5" target="PHka3gXeUMbXcuHf-Wi0-4" edge="1">
          <mxGeometry relative="1" as="geometry">
            <Array as="points">
              <mxPoint x="360" y="270" />
              <mxPoint x="360" y="270" />
            </Array>
          </mxGeometry>
        </mxCell>
        <mxCell id="PHka3gXeUMbXcuHf-Wi0-11" value="售罄" style="edgeStyle=orthogonalEdgeStyle;rounded=0;orthogonalLoop=1;jettySize=auto;html=1;" parent="1" source="PHka3gXeUMbXcuHf-Wi0-5" target="PHka3gXeUMbXcuHf-Wi0-6" edge="1">
          <mxGeometry relative="1" as="geometry">
            <Array as="points">
              <mxPoint x="460" y="320" />
              <mxPoint x="460" y="320" />
            </Array>
          </mxGeometry>
        </mxCell>
        <mxCell id="n3JGltzq1K_EkZzV0CXa-3" value="参与活动" style="edgeStyle=orthogonalEdgeStyle;rounded=0;orthogonalLoop=1;jettySize=auto;html=1;" edge="1" parent="1" source="PHka3gXeUMbXcuHf-Wi0-5" target="n3JGltzq1K_EkZzV0CXa-2">
          <mxGeometry relative="1" as="geometry">
            <Array as="points">
              <mxPoint x="520" y="250" />
              <mxPoint x="520" y="250" />
            </Array>
          </mxGeometry>
        </mxCell>
        <mxCell id="PHka3gXeUMbXcuHf-Wi0-5" value="已上架" style="rounded=1;whiteSpace=wrap;html=1;fillColor=#FFFFFF;" parent="1" vertex="1">
          <mxGeometry x="400" y="240" width="80" height="40" as="geometry" />
        </mxCell>
        <mxCell id="PHka3gXeUMbXcuHf-Wi0-12" value="补货" style="edgeStyle=orthogonalEdgeStyle;rounded=0;orthogonalLoop=1;jettySize=auto;html=1;" parent="1" source="PHka3gXeUMbXcuHf-Wi0-6" target="PHka3gXeUMbXcuHf-Wi0-5" edge="1">
          <mxGeometry relative="1" as="geometry">
            <Array as="points">
              <mxPoint x="420" y="320" />
              <mxPoint x="420" y="320" />
            </Array>
          </mxGeometry>
        </mxCell>
        <mxCell id="PHka3gXeUMbXcuHf-Wi0-14" value="下架" style="rounded=0;orthogonalLoop=1;jettySize=auto;html=1;exitX=0;exitY=0;exitDx=0;exitDy=0;entryX=1;entryY=1;entryDx=0;entryDy=0;" parent="1" source="PHka3gXeUMbXcuHf-Wi0-6" target="PHka3gXeUMbXcuHf-Wi0-4" edge="1">
          <mxGeometry relative="1" as="geometry">
            <mxPoint x="380" y="370" as="sourcePoint" />
          </mxGeometry>
        </mxCell>
        <mxCell id="PHka3gXeUMbXcuHf-Wi0-6" value="已售罄" style="rounded=1;whiteSpace=wrap;html=1;fillColor=#FFFFFF;" parent="1" vertex="1">
          <mxGeometry x="400" y="360" width="80" height="40" as="geometry" />
        </mxCell>
        <mxCell id="PHka3gXeUMbXcuHf-Wi0-16" style="edgeStyle=none;rounded=0;orthogonalLoop=1;jettySize=auto;html=1;" parent="1" source="PHka3gXeUMbXcuHf-Wi0-7" target="PHka3gXeUMbXcuHf-Wi0-2" edge="1">
          <mxGeometry relative="1" as="geometry" />
        </mxCell>
        <mxCell id="PHka3gXeUMbXcuHf-Wi0-7" value="已删除" style="rounded=1;whiteSpace=wrap;html=1;fillColor=#FFFFFF;" parent="1" vertex="1">
          <mxGeometry x="240" y="360" width="80" height="40" as="geometry" />
        </mxCell>
        <mxCell id="n3JGltzq1K_EkZzV0CXa-1" value="管理员修改商品&lt;br&gt;管理员上架商品&lt;br&gt;管理员逻辑删除商品" style="shape=note;whiteSpace=wrap;html=1;backgroundOutline=1;darkOpacity=0.05;align=left;" vertex="1" parent="1">
          <mxGeometry x="160" y="120" width="160" height="80" as="geometry" />
        </mxCell>
        <mxCell id="n3JGltzq1K_EkZzV0CXa-4" value="停止活动" style="edgeStyle=orthogonalEdgeStyle;rounded=0;orthogonalLoop=1;jettySize=auto;html=1;" edge="1" parent="1" source="n3JGltzq1K_EkZzV0CXa-2" target="PHka3gXeUMbXcuHf-Wi0-5">
          <mxGeometry relative="1" as="geometry">
            <Array as="points">
              <mxPoint x="520" y="270" />
              <mxPoint x="520" y="270" />
            </Array>
          </mxGeometry>
        </mxCell>
        <mxCell id="n3JGltzq1K_EkZzV0CXa-2" value="活动中" style="rounded=1;whiteSpace=wrap;html=1;" vertex="1" parent="1">
          <mxGeometry x="560" y="240" width="80" height="40" as="geometry" />
        </mxCell>
        <mxCell id="n3JGltzq1K_EkZzV0CXa-6" value="用户查看商品&lt;br&gt;用户购买商品&lt;br&gt;管理员下架商品&lt;br&gt;库存不足自动售罄" style="shape=note;whiteSpace=wrap;html=1;backgroundOutline=1;darkOpacity=0.05;align=left;" vertex="1" parent="1">
          <mxGeometry x="360" y="120" width="160" height="80" as="geometry" />
        </mxCell>
        <mxCell id="n3JGltzq1K_EkZzV0CXa-8" value="用户作为普通商品购买&lt;br&gt;用户参加商品活动&lt;br&gt;活动正常结束&lt;br&gt;管理员终止或暂停活动" style="shape=note;whiteSpace=wrap;html=1;backgroundOutline=1;darkOpacity=0.05;align=left;" vertex="1" parent="1">
          <mxGeometry x="560" y="120" width="160" height="80" as="geometry" />
        </mxCell>
        <mxCell id="n3JGltzq1K_EkZzV0CXa-9" value="用户查看商品&lt;br&gt;管理员补货（仅改库存）&lt;br&gt;管理员下架商品" style="shape=note;whiteSpace=wrap;html=1;backgroundOutline=1;darkOpacity=0.05;align=left;" vertex="1" parent="1">
          <mxGeometry x="360" y="440" width="160" height="80" as="geometry" />
        </mxCell>
        <mxCell id="n3JGltzq1K_EkZzV0CXa-11" value="" style="endArrow=none;dashed=1;html=1;dashPattern=1 3;strokeWidth=2;exitX=0.5;exitY=0;exitDx=0;exitDy=0;entryX=0.5;entryY=1;entryDx=0;entryDy=0;entryPerimeter=0;startArrow=oval;startFill=0;" edge="1" parent="1" source="PHka3gXeUMbXcuHf-Wi0-5" target="n3JGltzq1K_EkZzV0CXa-6">
          <mxGeometry width="50" height="50" relative="1" as="geometry">
            <mxPoint x="390" y="90" as="sourcePoint" />
            <mxPoint x="480" y="220" as="targetPoint" />
          </mxGeometry>
        </mxCell>
        <mxCell id="n3JGltzq1K_EkZzV0CXa-13" value="" style="endArrow=none;dashed=1;html=1;dashPattern=1 3;strokeWidth=2;exitX=0.5;exitY=0;exitDx=0;exitDy=0;entryX=0.5;entryY=1;entryDx=0;entryDy=0;entryPerimeter=0;startArrow=oval;startFill=0;" edge="1" parent="1" source="PHka3gXeUMbXcuHf-Wi0-4" target="n3JGltzq1K_EkZzV0CXa-1">
          <mxGeometry width="50" height="50" relative="1" as="geometry">
            <mxPoint x="450" y="250" as="sourcePoint" />
            <mxPoint x="450" y="210" as="targetPoint" />
          </mxGeometry>
        </mxCell>
        <mxCell id="n3JGltzq1K_EkZzV0CXa-14" value="" style="endArrow=none;dashed=1;html=1;dashPattern=1 3;strokeWidth=2;exitX=0.5;exitY=0;exitDx=0;exitDy=0;entryX=0.5;entryY=1;entryDx=0;entryDy=0;entryPerimeter=0;startArrow=oval;startFill=0;" edge="1" parent="1" source="n3JGltzq1K_EkZzV0CXa-2" target="n3JGltzq1K_EkZzV0CXa-8">
          <mxGeometry width="50" height="50" relative="1" as="geometry">
            <mxPoint x="460" y="260" as="sourcePoint" />
            <mxPoint x="460" y="220" as="targetPoint" />
          </mxGeometry>
        </mxCell>
        <mxCell id="n3JGltzq1K_EkZzV0CXa-15" value="" style="endArrow=none;dashed=1;html=1;dashPattern=1 3;strokeWidth=2;exitX=0.5;exitY=1;exitDx=0;exitDy=0;entryX=0.5;entryY=0;entryDx=0;entryDy=0;entryPerimeter=0;startArrow=oval;startFill=0;" edge="1" parent="1" source="PHka3gXeUMbXcuHf-Wi0-6" target="n3JGltzq1K_EkZzV0CXa-9">
          <mxGeometry width="50" height="50" relative="1" as="geometry">
            <mxPoint x="470" y="270" as="sourcePoint" />
            <mxPoint x="470" y="230" as="targetPoint" />
          </mxGeometry>
        </mxCell>
      </root>
    </mxGraphModel>
  </diagram>
</mxfile>
